# xmcd
#
# Track frame offsets: 
#        183
#        31808
#        73693
#        89505
#        117710
#        160228
#
# Disc length: 3283 seconds
#
# Revision: 3
# Processed by: cddbd v1.5.1PL2 Copyright (c) Steve Scherf et al.
# Submitted via: ExactAudioCopy v0.95b3
#
DISCID=4e0cd106
DTITLE=Christian Leotta - Ludwig Van Beethoven - Sonate op.22, op.111
DYEAR=1998
DGENRE=Classic
TTITLE0=Allegro con brio - Sonata for piano n.11 in B flat major op.22
TTITLE1=Adagio - Sonata for piano n.11 in B flat major op.22
TTITLE2=Tempo di minuetto - Sonata for piano n.11 in B flat major op.2
TTITLE2=2
TTITLE3=Rondo allegretto - Sonata for piano n.11 in B flat major op.22
TTITLE4=Maestoso, allegro con brio appassionato - Sonata for piano n.3
TTITLE4=2 in C minor op.111
TTITLE5=Arietta - Sonata for piano n.32 in C minor op.111
EXTD=
EXTT0=
EXTT1=
EXTT2=
EXTT3=
EXTT4=
EXTT5=
PLAYORDER=
